<svg xmlns="http://www.w3.org/2000/svg" viewBox="0 0 32 32">
  <defs>
    <linearGradient id="grad" x1="0%" y1="0%" x2="100%" y2="100%">
      <stop offset="0%" style="stop-color:#4F46E5;stop-opacity:1" />
      <stop offset="100%" style="stop-color:#9333EA;stop-opacity:1" />
    </linearGradient>
  </defs>
  <rect width="32" height="32" rx="6" fill="url(#grad)"/>
  <path d="M6 16C6 11.5817 9.58172 8 14 8C18.4183 8 22 11.5817 22 16C22 20.4183 18.4183 24 14 24" stroke="white" stroke-width="2" stroke-linecap="round" opacity="0.6" fill="none"/>
  <path d="M9 16C9 13.2386 11.2386 11 14 11C16.7614 11 19 13.2386 19 16C19 18.7614 16.7614 21 14 21" stroke="white" stroke-width="2" stroke-linecap="round" opacity="0.8" fill="none"/>
  <path fill-rule="evenodd" clip-rule="evenodd" d="M14 13L15.2 15.4L18 16L15.2 16.6L14 19L12.8 16.6L10 16L12.8 15.4L14 13Z" fill="white"/>
  <rect x="12" y="22" width="12" height="8" rx="1.5" fill="white" opacity="0.9"/>
  <line x1="14" y1="25" x2="21" y2="25" stroke="#4F46E5" stroke-width="1" opacity="0.7"/>
  <line x1="14" y1="27" x2="19" y2="27" stroke="#4F46E5" stroke-width="1" opacity="0.7"/>
</svg>
